<svg xmlns="http://www.w3.org/2000/svg" viewBox="0 0 512 512">
  <defs>
    <linearGradient id="bg" x1="0" y1="0" x2="1" y2="1">
      <stop offset="0" stop-color="#ff8b16"/>
      <stop offset="0.55" stop-color="#f13a16"/>
      <stop offset="1" stop-color="#8d1209"/>
    </linearGradient>
  </defs>
  <rect width="512" height="512" rx="92" fill="url(#bg)"/>
  <rect x="34" y="34" width="444" height="444" rx="76" fill="none" stroke="#080706" stroke-width="18"/>
  <path d="M256 72l150 52v112c0 100-58 166-150 204-92-38-150-104-150-204V124z" fill="#fff0c2" stroke="#080706" stroke-width="16"/>
  <path d="M256 92v326c74-34 120-88 120-176V146z" fill="#ffd23f" opacity=".95"/>
  <path d="M256 72l150 52v112c0 100-58 166-150 204-92-38-150-104-150-204V124z" fill="none" stroke="#080706" stroke-width="16"/>
  <text x="256" y="246" text-anchor="middle" font-family="Impact, Haettenschweiler, Arial Narrow Bold, sans-serif" font-size="116" font-weight="900" fill="#14100b">185</text>
  <text x="256" y="318" text-anchor="middle" font-family="Impact, Haettenschweiler, Arial Narrow Bold, sans-serif" font-size="54" font-weight="900" letter-spacing="3" fill="#14100b">MISSION</text>
  <path d="M164 354h184" stroke="#14100b" stroke-width="16" stroke-linecap="square"/>
  <path d="M256 336v56" stroke="#14100b" stroke-width="16" stroke-linecap="square"/>
</svg>
