<svg xmlns="http://www.w3.org/2000/svg" viewBox="0 0 160 140" shape-rendering="crispEdges">
  <rect width="160" height="140" fill="#7e4d62"/>
  <rect x="0" y="100" width="160" height="40" fill="#5a3147"/>
  <rect x="10" y="10" width="140" height="120" fill="none" stroke="#111" stroke-width="4"/>
  <text x="80" y="18" text-anchor="middle" font-family="monospace" font-size="9" font-weight="900" fill="#ffd23f">SHIELD</text>
  <rect x="32" y="34" width="18" height="62" fill="#2b1b12" stroke="#111" stroke-width="4"/>
  <rect x="110" y="30" width="10" height="70" fill="#2b1b12" stroke="#111" stroke-width="4"/>
  <rect x="52" y="24" width="56" height="20" fill="#f0ad6c" stroke="#111" stroke-width="4"/>
  <rect x="60" y="18" width="40" height="14" fill="#ffd23f" stroke="#111" stroke-width="4"/>
  <rect x="62" y="36" width="8" height="8" fill="#111"/><rect x="90" y="36" width="8" height="8" fill="#111"/>
  <rect x="72" y="48" width="16" height="5" fill="#111"/>
  <rect x="48" y="58" width="64" height="42" fill="#6879a8" stroke="#111" stroke-width="5"/>
  <rect x="70" y="62" width="20" height="32" fill="#ffd23f"/>
  <rect x="60" y="74" width="40" height="8" fill="#111" opacity=".35"/>
  <rect x="38" y="62" width="16" height="44" fill="#f0ad6c" stroke="#111" stroke-width="4"/>
  <rect x="106" y="62" width="16" height="44" fill="#f0ad6c" stroke="#111" stroke-width="4"/>
  <rect x="54" y="100" width="18" height="24" fill="#1b6cff" stroke="#111" stroke-width="4"/>
  <rect x="88" y="100" width="18" height="24" fill="#1b6cff" stroke="#111" stroke-width="4"/>
  <rect x="44" y="122" width="34" height="10" fill="#111"/>
  <rect x="82" y="122" width="34" height="10" fill="#111"/>
  <path d="M18 58h32v28c0 18-16 28-16 28S18 104 18 86Z" fill="#62e9ff" stroke="#111" stroke-width="4"/><rect x="31" y="64" width="6" height="38" fill="#ffd23f"/><rect x="23" y="76" width="22" height="6" fill="#ffd23f"/>
  <rect x="123" y="28" width="8" height="76" fill="#d7d7d7" stroke="#111" stroke-width="3"/><rect x="117" y="20" width="20" height="12" fill="#62e9ff" stroke="#111" stroke-width="3"/>
  <rect x="0" y="0" width="160" height="140" fill="none" stroke="#050302" stroke-width="8"/>
  <rect x="8" y="8" width="144" height="124" fill="none" stroke="#62e9ff" stroke-width="3" opacity=".75"/>
</svg>
