<svg xmlns="http://www.w3.org/2000/svg" viewBox="0 0 160 140" shape-rendering="crispEdges">
  <rect width="160" height="140" fill="#7e4d62"/>
  <rect x="0" y="100" width="160" height="40" fill="#5a3147"/>
  <rect x="10" y="10" width="140" height="120" fill="none" stroke="#111" stroke-width="4"/>
  <text x="80" y="18" text-anchor="middle" font-family="monospace" font-size="9" font-weight="900" fill="#ffd23f">LEGEND</text>
  <rect x="32" y="34" width="18" height="62" fill="#2b1b12" stroke="#111" stroke-width="4"/>
  <rect x="110" y="30" width="10" height="70" fill="#2b1b12" stroke="#111" stroke-width="4"/>
  <rect x="52" y="24" width="56" height="20" fill="#f0ad6c" stroke="#111" stroke-width="4"/>
  <rect x="60" y="18" width="40" height="14" fill="#8dff4a" stroke="#111" stroke-width="4"/>
  <rect x="62" y="36" width="8" height="8" fill="#111"/><rect x="90" y="36" width="8" height="8" fill="#111"/>
  <rect x="72" y="48" width="16" height="5" fill="#111"/>
  <rect x="48" y="58" width="64" height="42" fill="#fff0c2" stroke="#111" stroke-width="5"/>
  <rect x="70" y="62" width="20" height="32" fill="#8dff4a"/>
  <rect x="60" y="74" width="40" height="8" fill="#111" opacity=".35"/>
  <rect x="38" y="62" width="16" height="44" fill="#f0ad6c" stroke="#111" stroke-width="4"/>
  <rect x="106" y="62" width="16" height="44" fill="#f0ad6c" stroke="#111" stroke-width="4"/>
  <rect x="54" y="100" width="18" height="24" fill="#1b6cff" stroke="#111" stroke-width="4"/>
  <rect x="88" y="100" width="18" height="24" fill="#1b6cff" stroke="#111" stroke-width="4"/>
  <rect x="44" y="122" width="34" height="10" fill="#111"/>
  <rect x="82" y="122" width="34" height="10" fill="#111"/>
  <path d="M14 52h40v34c0 24-20 34-20 34S14 110 14 86Z" fill="#8dff4a" stroke="#111" stroke-width="4"/><rect x="31" y="58" width="6" height="48" fill="#111"/><rect x="20" y="75" width="28" height="7" fill="#111"/>
  <rect x="123" y="18" width="8" height="86" fill="#fff0c2" stroke="#111" stroke-width="3"/><rect x="112" y="8" width="30" height="16" fill="#8dff4a" stroke="#111" stroke-width="3"/><rect x="76" y="4" width="8" height="12" fill="#ffd23f"/><rect x="72" y="8" width="16" height="8" fill="#ffd23f"/>
  <rect x="0" y="0" width="160" height="140" fill="none" stroke="#050302" stroke-width="8"/>
  <rect x="8" y="8" width="144" height="124" fill="none" stroke="#8dff4a" stroke-width="3" opacity=".75"/>
</svg>
